<svg id="visual" viewBox="0 0 900 300" width="900" height="300" xmlns="http://www.w3.org/2000/svg" xmlns:xlink="http://www.w3.org/1999/xlink" version="1.1"><path d="M0 118L21.5 110C43 102 86 86 128.8 79.5C171.7 73 214.3 76 257.2 80C300 84 343 89 385.8 89C428.7 89 471.3 84 514.2 79C557 74 600 69 642.8 72.5C685.7 76 728.3 88 771.2 88.5C814 89 857 78 878.5 72.5L900 67L900 0L878.5 0C857 0 814 0 771.2 0C728.3 0 685.7 0 642.8 0C600 0 557 0 514.2 0C471.3 0 428.7 0 385.8 0C343 0 300 0 257.2 0C214.3 0 171.7 0 128.8 0C86 0 43 0 21.5 0L0 0Z" fill="#213cb6"></path><path d="M0 163L21.5 152C43 141 86 119 128.8 111.5C171.7 104 214.3 111 257.2 114.5C300 118 343 118 385.8 121.5C428.7 125 471.3 132 514.2 129C557 126 600 113 642.8 110.5C685.7 108 728.3 116 771.2 115.5C814 115 857 106 878.5 101.5L900 97L900 65L878.5 70.5C857 76 814 87 771.2 86.5C728.3 86 685.7 74 642.8 70.5C600 67 557 72 514.2 77C471.3 82 428.7 87 385.8 87C343 87 300 82 257.2 78C214.3 74 171.7 71 128.8 77.5C86 84 43 100 21.5 108L0 116Z" fill="#003b97"></path><path d="M0 187L21.5 179.5C43 172 86 157 128.8 150C171.7 143 214.3 144 257.2 146.5C300 149 343 153 385.8 156C428.7 159 471.3 161 514.2 156.5C557 152 600 141 642.8 141C685.7 141 728.3 152 771.2 150C814 148 857 133 878.5 125.5L900 118L900 95L878.5 99.5C857 104 814 113 771.2 113.5C728.3 114 685.7 106 642.8 108.5C600 111 557 124 514.2 127C471.3 130 428.7 123 385.8 119.5C343 116 300 116 257.2 112.5C214.3 109 171.7 102 128.8 109.5C86 117 43 139 21.5 150L0 161Z" fill="#003775"></path><path d="M0 244L21.5 242C43 240 86 236 128.8 240C171.7 244 214.3 256 257.2 258C300 260 343 252 385.8 246.5C428.7 241 471.3 238 514.2 238.5C557 239 600 243 642.8 248.5C685.7 254 728.3 261 771.2 262C814 263 857 258 878.5 255.5L900 253L900 116L878.5 123.5C857 131 814 146 771.2 148C728.3 150 685.7 139 642.8 139C600 139 557 150 514.2 154.5C471.3 159 428.7 157 385.8 154C343 151 300 147 257.2 144.5C214.3 142 171.7 141 128.8 148C86 155 43 170 21.5 177.5L0 185Z" fill="#143053"></path><path d="M0 301L21.5 301C43 301 86 301 128.8 301C171.7 301 214.3 301 257.2 301C300 301 343 301 385.8 301C428.7 301 471.3 301 514.2 301C557 301 600 301 642.8 301C685.7 301 728.3 301 771.2 301C814 301 857 301 878.5 301L900 301L900 251L878.5 253.5C857 256 814 261 771.2 260C728.3 259 685.7 252 642.8 246.5C600 241 557 237 514.2 236.5C471.3 236 428.7 239 385.8 244.5C343 250 300 258 257.2 256C214.3 254 171.7 242 128.8 238C86 234 43 238 21.5 240L0 242Z" fill="#202731"></path></svg>